<svg xmlns="http://www.w3.org/2000/svg" viewBox="0 0 83.03 8.35"><defs><style>.cls-1{fill:#fff;stroke:#f40b0b;stroke-miterlimit:10;stroke-width:0.25px;}</style></defs><title>Asset 1</title><g id="Layer_2" data-name="Layer 2"><g id="Layer_1-2" data-name="Layer 1"><path class="cls-1" d="M1.81,2.27H3.55L3.78,5.1l0,1.19h0l.46-1.16L5.78,2.27H7.51L6,10.08H4.53l.59-2.91C5.28,6.4,5.78,4.7,6,3.9H6c0,.07-.87,1.89-.94,2L4,8H3l-.2-1.91C2.82,6,2.71,4,2.7,3.9H2.65c-.09,1-.24,2.39-.37,3l-.65,3.15H.25Z" transform="translate(-0.1 -2)"/><path class="cls-1" d="M9,7c0-2.68,1.61-4.91,3.93-4.91,1.61,0,2.62,1.2,2.62,3.18,0,2.69-1.59,4.92-3.9,4.92C10,10.23,9,9,9,7Zm4.87-1.88c0-1.08-.35-1.61-1.11-1.61-1.22,0-2.07,1.66-2.07,3.64,0,1.08.36,1.62,1.12,1.62C13,8.81,13.88,7.15,13.88,5.16Z" transform="translate(-0.1 -2)"/><path class="cls-1" d="M18.11,2.27h1.72L20,6.11c0,.83.07,1.67.09,2.51h.05c.33-.78.81-1.88,1.1-2.5L23,2.27h1.81l-4.07,7.81h-2Z" transform="translate(-0.1 -2)"/><path class="cls-1" d="M25.93,8.71h1.81l1-5.06H26.93l.29-1.38h5.32l-.29,1.38H30.42l-1,5.06h1.85L31,10.08H25.63Z" transform="translate(-0.1 -2)"/><path class="cls-1" d="M35.87,2.27H41l-.27,1.38H37.23L36.9,5.34h2.9l-.27,1.38h-2.9l-.41,2H39.8l-.27,1.37H34.31Z" transform="translate(-0.1 -2)"/><path class="cls-1" d="M54,3.65H51.58l.27-1.38h6.39L58,3.65H55.6l-1.27,6.43H52.68Z" transform="translate(-0.1 -2)"/><path class="cls-1" d="M59.53,8.71h1.81l1-5.06H60.53l.29-1.38h5.32l-.29,1.38H64L63,8.71h1.85l-.29,1.37H59.23Z" transform="translate(-0.1 -2)"/><path class="cls-1" d="M69,2.27h1.73L71,5.1l0,1.19h0l.46-1.16L73,2.27h1.73l-1.56,7.81H71.73l.59-2.91c.16-.77.66-2.47.89-3.27h0c0,.07-.87,1.89-.94,2L71.2,8h-1L70,6.07C70,6,69.91,4,69.9,3.9h-.05c-.1,1-.24,2.39-.37,3l-.65,3.15H67.45Z" transform="translate(-0.1 -2)"/><path class="cls-1" d="M77.87,2.27H83l-.27,1.38H79.23L78.9,5.34h2.9l-.27,1.38h-2.9l-.41,2H81.8l-.27,1.37H76.31Z" transform="translate(-0.1 -2)"/></g></g></svg>